<?xml version="1.0" standalone="no"?>
<!DOCTYPE svg PUBLIC "-//W3C//DTD SVG 20010904//EN"
 "http://www.w3.org/TR/2001/REC-SVG-20010904/DTD/svg10.dtd">
<svg version="1.0" xmlns="http://www.w3.org/2000/svg"
 width="1773.000000pt" height="1773.000000pt" viewBox="0 0 1773.000000 1773.000000"
 preserveAspectRatio="xMidYMid meet">
<metadata>
Created by potrace 1.14, written by Peter Selinger 2001-2017
</metadata>
<g transform="translate(0.000000,1773.000000) scale(0.100000,-0.100000)"
fill="#000000" stroke="none">
<path d="M7800 13483 c-78 -15 -101 -19 -205 -38 -44 -8 -93 -17 -110 -20 -16
-3 -50 -8 -75 -12 -59 -8 -67 -15 -62 -57 l4 -34 58 -1 c32 0 74 -8 94 -17 71
-34 66 77 66 -1528 l0 -1446 23 -1 c12 0 36 -2 54 -4 31 -3 37 3 179 193 81
108 148 198 149 200 2 2 45 -39 96 -91 147 -147 334 -261 504 -308 123 -34
321 -31 464 6 150 39 269 105 370 207 151 154 243 329 297 568 19 83 25 312
11 414 -11 76 -50 227 -80 308 -107 283 -318 517 -548 608 -135 54 -215 69
-369 71 -254 3 -481 -101 -641 -294 -27 -32 -50 -57 -50 -55 -6 14 -9 223 -10
688 0 308 -5 561 -10 583 -7 26 -20 44 -42 58 -35 21 -66 22 -167 2z m820
-1278 c19 -4 59 -16 90 -28 294 -110 548 -433 624 -794 26 -124 31 -166 31
-303 0 -198 -15 -277 -77 -408 -80 -166 -239 -264 -428 -264 -90 1 -101 2
-189 28 -251 72 -559 340 -633 551 -19 55 -20 80 -18 418 2 491 1 470 34 535
78 154 201 249 356 273 33 5 166 0 210 -8z"/>
<path d="M2679 13252 c-10 -2 -13 -13 -11 -40 4 -36 5 -37 44 -39 100 -6 180
-71 208 -168 8 -29 10 -374 8 -1255 l-3 -1215 -27 -45 c-43 -72 -95 -106 -188
-119 -36 -5 -45 -10 -45 -26 -1 -55 -26 -52 495 -52 l480 0 0 37 c0 37 0 37
-49 44 -28 4 -65 13 -84 21 -47 19 -104 86 -118 137 -8 30 -11 175 -12 466 0
232 2 424 4 426 2 3 157 6 343 7 l340 3 32 -30 c87 -80 217 -302 321 -549 14
-33 56 -123 94 -201 84 -174 140 -237 251 -288 108 -49 229 -68 456 -72 l192
-3 0 38 c0 37 -1 38 -37 39 -203 8 -311 122 -427 452 -62 175 -93 253 -129
320 -80 149 -195 287 -290 347 l-48 30 63 23 c260 94 456 271 545 492 61 151
75 371 34 533 -22 83 -83 218 -123 270 -40 52 -138 144 -202 189 -103 74 -293
158 -407 181 -106 22 -209 36 -294 42 -98 6 -1387 11 -1416 5z m1433 -86 c179
-22 334 -153 421 -355 29 -67 60 -194 73 -296 12 -101 6 -344 -11 -405 -2 -8
-6 -28 -9 -44 -9 -51 -49 -160 -79 -216 -78 -146 -167 -230 -304 -288 -93 -40
-146 -45 -493 -47 l-335 -3 1 728 c2 645 4 733 18 777 26 79 103 139 189 149
23 3 42 6 43 7 5 5 442 -2 486 -7z"/>
<path d="M6203 12494 c-301 -43 -584 -210 -749 -441 -78 -109 -151 -290 -169
-423 -3 -19 -8 -50 -11 -69 -8 -47 -7 -245 1 -317 41 -354 261 -674 570 -828
252 -125 481 -153 729 -90 186 48 343 133 460 250 108 108 233 284 239 336 1
11 -7 26 -19 34 -20 14 -24 10 -83 -61 -108 -132 -261 -225 -426 -261 -68 -14
-281 -13 -360 2 -272 52 -521 254 -667 540 -51 101 -84 182 -75 190 3 3 353 6
778 5 855 0 819 -2 879 65 84 96 87 233 10 433 -88 227 -321 459 -564 560
-175 73 -370 100 -543 75z m194 -151 c187 -61 342 -209 439 -417 30 -66 64
-172 79 -251 3 -16 9 -76 12 -132 l6 -103 -74 -1 c-400 -2 -1252 1 -1257 5
-13 13 -21 110 -18 226 4 150 27 244 91 375 86 175 222 277 418 314 75 14 237
5 304 -16z"/>
<path d="M10977 12505 c-1 -2 -51 -5 -112 -8 -77 -4 -137 -13 -200 -32 -443
-130 -717 -425 -780 -840 -3 -16 -7 -41 -10 -55 -4 -20 -7 -210 -4 -295 2 -47
41 -217 64 -279 100 -265 273 -462 511 -579 176 -88 316 -123 474 -121 58 0
125 4 150 8 198 31 419 133 545 253 90 85 185 208 240 311 l29 54 -24 19 c-25
19 -25 19 -48 -9 -140 -167 -244 -243 -394 -287 -321 -93 -657 -5 -890 232
-70 71 -82 86 -141 170 -39 56 -131 241 -142 286 -7 27 -7 27 46 27 30 1 371
1 759 1 388 0 724 2 747 5 54 8 124 67 147 124 22 56 27 146 11 221 -40 187
-126 337 -279 487 -136 132 -290 220 -468 267 -81 21 -223 46 -231 40z m23
-164 c298 -94 519 -437 529 -818 l2 -83 -63 -1 c-331 -2 -1261 1 -1265 5 -12
11 -18 89 -17 211 0 156 23 254 89 390 106 217 299 328 560 320 66 -2 122 -10
165 -24z"/>
<path d="M13107 12504 c-1 -1 -39 -4 -85 -7 -158 -11 -322 -69 -464 -164 -287
-190 -465 -543 -473 -938 -6 -272 78 -506 264 -737 166 -207 370 -324 620
-356 96 -12 281 -6 376 13 246 49 442 157 576 321 80 96 96 119 141 197 l47
81 -42 27 -42 27 -30 -36 c-52 -65 -148 -152 -205 -187 -188 -114 -419 -127
-678 -38 -244 84 -481 286 -606 513 -137 251 -184 541 -125 765 30 112 128
234 229 285 300 151 796 -40 987 -380 37 -65 51 -120 52 -199 l1 -53 60 5
c146 15 260 114 278 242 16 118 -28 238 -125 344 -162 179 -368 258 -706 274
-26 2 -49 2 -50 1z"/>
<path d="M15127 12504 c-1 -1 -38 -5 -82 -9 -44 -4 -102 -11 -130 -17 -27 -5
-61 -11 -75 -14 -52 -10 -188 -58 -250 -90 -173 -86 -261 -204 -263 -355 0
-55 4 -74 27 -113 15 -26 46 -59 68 -74 38 -24 50 -27 132 -27 55 0 104 5 124
14 30 12 32 17 27 45 -14 72 -17 188 -6 233 30 119 110 227 206 276 109 55
313 76 415 42 51 -17 128 -69 162 -109 42 -49 88 -162 103 -253 14 -84 25
-366 14 -377 -2 -2 -24 -7 -49 -11 -38 -5 -233 -38 -295 -50 -260 -48 -534
-129 -674 -199 -172 -85 -283 -197 -340 -343 -11 -29 -19 -53 -16 -53 2 0 0
-12 -6 -27 -16 -42 -13 -201 6 -274 24 -94 61 -156 136 -230 174 -171 462
-242 754 -184 17 3 67 24 113 46 126 61 242 181 322 332 34 64 54 59 57 -13 6
-178 69 -288 195 -346 57 -25 73 -28 173 -27 61 0 130 6 155 13 25 6 52 13 60
15 39 8 100 39 100 50 0 8 -4 25 -9 38 -9 22 -13 24 -62 19 -70 -7 -111 16
-141 77 -26 51 -23 -24 -31 946 -2 226 -7 426 -11 445 -38 185 -91 295 -189
394 -116 116 -264 180 -467 202 -49 5 -249 11 -253 8z m475 -1011 c0 -49 -1
-207 -2 -353 l-2 -264 -41 -60 c-54 -79 -159 -185 -227 -228 -216 -136 -462
-92 -586 103 -70 111 -73 293 -7 424 86 171 252 294 526 390 92 32 326 87 336
79 2 -2 4 -43 3 -91z"/>
<path d="M6704 9831 c-193 -46 -319 -271 -245 -434 41 -91 109 -130 226 -131
88 0 160 25 230 81 179 143 162 421 -29 478 -52 16 -130 18 -182 6z"/>
<path d="M14791 9824 c-119 -42 -199 -127 -231 -244 -49 -184 62 -324 250
-315 182 9 325 144 338 318 11 157 -88 258 -252 257 -34 -1 -81 -8 -105 -16z"/>
<path d="M4765 9664 c-5 -1 -59 -5 -120 -8 -231 -10 -396 -52 -610 -157 -442
-215 -816 -635 -1031 -1159 -112 -275 -167 -538 -168 -805 -1 -140 7 -216 33
-318 38 -148 111 -276 214 -380 99 -99 199 -160 345 -211 89 -31 113 -38 202
-52 25 -4 52 -9 60 -11 34 -9 359 -11 405 -3 28 5 68 12 89 15 97 16 262 86
452 192 223 123 279 109 279 -69 l0 -88 42 0 42 0 15 53 c8 28 40 144 70 257
30 113 69 257 86 320 17 63 33 126 36 140 7 33 29 106 66 215 29 87 56 136 88
163 32 27 106 50 166 52 7 0 15 12 18 28 4 15 9 34 12 43 4 13 -6 15 -73 11
-100 -6 -850 -5 -966 0 l-87 5 -11 -40 c-6 -21 -8 -41 -6 -43 3 -3 38 -7 78
-9 283 -16 315 -86 214 -466 -19 -71 -37 -139 -39 -151 -19 -90 -62 -225 -91
-285 -52 -106 -122 -157 -300 -219 -98 -35 -131 -39 -295 -39 -159 1 -229 14
-335 64 -155 72 -267 229 -300 418 -27 159 -27 387 0 568 9 61 19 126 21 145
3 19 10 55 16 80 5 25 12 56 14 70 12 61 49 195 86 310 208 646 564 1107 954
1239 412 138 879 -46 970 -384 20 -78 25 -280 11 -438 l-9 -88 48 3 49 3 22
100 c13 55 25 114 28 130 21 109 111 426 176 616 21 63 39 118 39 120 0 3 -20
5 -45 5 -40 0 -45 -3 -56 -30 -6 -17 -29 -67 -51 -112 -59 -122 -109 -141
-181 -71 -86 83 -232 180 -328 217 -57 23 -143 40 -234 46 -38 3 -77 6 -85 8
-8 1 -19 2 -25 0z"/>
<path d="M13583 9479 c-19 -7 -66 -16 -173 -34 -14 -3 -74 -7 -135 -11 -60 -3
-114 -10 -118 -14 -5 -4 -33 -93 -63 -196 -30 -104 -63 -218 -74 -254 -10 -36
-26 -91 -35 -122 -11 -40 -22 -58 -33 -59 -9 0 -96 -1 -193 -1 l-176 -1 -10
-44 -10 -43 188 0 c104 0 189 -2 189 -5 0 -3 -18 -69 -41 -147 -23 -79 -49
-172 -59 -208 -10 -36 -30 -105 -45 -155 -14 -49 -28 -97 -30 -106 -2 -9 -13
-49 -25 -89 -12 -40 -23 -80 -26 -89 -2 -9 -55 -195 -118 -414 -63 -219 -117
-422 -121 -450 -41 -330 93 -493 400 -486 241 6 411 114 520 329 26 52 139
360 148 404 1 5 -16 10 -39 11 l-41 1 -37 -109 c-21 -61 -41 -117 -46 -126 -4
-9 -16 -36 -26 -61 -46 -109 -124 -203 -204 -244 -65 -34 -114 -38 -174 -15
-111 42 -120 108 -46 359 28 96 53 182 55 190 2 8 45 159 95 335 100 350 136
475 198 695 23 80 56 197 74 260 l34 115 274 5 274 5 4 41 3 42 -261 0 c-143
0 -262 1 -264 3 -1 2 42 159 96 348 54 189 97 345 96 346 -2 2 -13 -1 -25 -6z"/>
<path d="M12082 9465 c-68 -17 -123 -23 -252 -31 -58 -3 -109 -10 -113 -14 -5
-4 -49 -146 -98 -315 -49 -170 -91 -310 -93 -312 -2 -3 -89 -5 -192 -6 l-188
-2 -12 -42 -13 -43 190 0 c104 0 189 -2 189 -5 0 -3 -21 -77 -46 -163 -25 -86
-47 -166 -49 -177 -3 -11 -14 -49 -24 -85 -70 -230 -317 -1100 -333 -1170 -28
-127 -22 -285 14 -362 34 -73 95 -131 167 -160 47 -18 77 -22 186 -22 153 -1
234 19 330 82 100 65 153 127 217 257 28 56 138 365 138 387 0 10 -11 14 -37
14 l-38 -1 -43 -120 c-73 -206 -140 -327 -213 -381 -75 -56 -119 -70 -204 -65
-35 2 -104 53 -115 85 -5 16 -10 50 -9 75 0 29 95 377 252 926 l252 880 270 3
c200 2 271 6 277 15 4 6 8 26 8 43 l0 32 -260 -1 c-144 0 -262 2 -264 4 -2 2
32 126 75 274 43 149 86 296 94 327 8 32 18 64 21 73 7 18 -9 18 -84 0z"/>
<path d="M6335 8835 c-111 -23 -164 -48 -245 -118 -94 -81 -146 -170 -222
-382 -64 -180 -79 -226 -74 -234 3 -4 22 -5 41 -2 36 6 37 8 76 111 97 254
158 365 231 424 28 22 51 30 91 34 50 4 56 2 76 -24 42 -54 31 -105 -114 -519
-42 -121 -96 -276 -120 -345 -24 -69 -82 -235 -130 -370 -48 -135 -100 -293
-115 -352 -62 -228 -39 -385 64 -456 73 -50 236 -66 356 -35 141 37 274 148
347 288 34 66 163 409 163 433 0 4 -18 7 -39 7 l-39 0 -57 -145 c-123 -311
-205 -420 -316 -422 -32 0 -47 6 -67 26 -23 22 -26 34 -25 79 1 55 16 101 128
422 37 105 86 246 110 315 24 69 76 217 115 330 121 345 150 434 156 465 3 17
9 50 15 73 15 67 13 175 -5 235 -40 137 -201 202 -401 162z"/>
<path d="M7602 8830 c-89 -23 -155 -58 -221 -117 -59 -52 -146 -181 -168 -248
-1 -5 -30 -88 -63 -184 -33 -95 -58 -176 -55 -180 5 -10 65 -5 74 6 4 4 27 62
51 128 103 290 188 415 293 432 108 17 133 -47 86 -217 -11 -41 -22 -82 -24
-90 -2 -8 -12 -46 -23 -85 -28 -95 -62 -216 -67 -238 -4 -20 -94 -342 -125
-447 -10 -36 -59 -211 -109 -390 -50 -179 -106 -381 -125 -450 -20 -69 -36
-128 -36 -132 0 -5 101 -8 225 -8 207 0 225 1 226 18 1 21 -3 7 54 222 25 96
55 207 66 245 134 446 251 759 389 1040 77 156 167 311 204 351 6 7 22 27 36
45 91 120 224 209 314 209 25 0 46 -4 46 -8 0 -5 -19 -16 -42 -26 -53 -24
-129 -100 -158 -160 -43 -90 -37 -220 13 -267 49 -46 96 -62 172 -57 89 6 148
33 211 96 81 83 116 180 103 292 -11 100 -62 173 -149 213 -36 17 -64 21 -140
20 -107 0 -193 -26 -275 -83 -45 -31 -175 -158 -175 -171 0 -4 -6 -14 -14 -22
-60 -59 -233 -402 -301 -594 -34 -95 -27 -48 20 133 63 241 83 353 83 453 0
195 -71 278 -246 286 -53 2 -99 -2 -150 -15z"/>
<path d="M9971 8838 c-25 -4 -62 -10 -84 -13 -56 -9 -170 -51 -251 -93 -135
-70 -285 -198 -379 -322 -23 -30 -44 -57 -47 -60 -16 -15 -107 -162 -144 -234
-79 -153 -167 -392 -191 -521 -64 -351 -51 -580 42 -758 78 -147 202 -236 383
-273 126 -25 384 -6 475 35 11 5 40 17 65 28 215 89 396 249 557 494 157 239
272 544 307 814 3 22 8 60 11 84 4 24 7 87 7 140 2 390 -150 610 -467 676 -48
10 -236 12 -284 3z m225 -113 c41 -32 68 -85 82 -165 14 -76 7 -351 -12 -478
-3 -20 -8 -57 -11 -82 -5 -36 -41 -214 -60 -290 -42 -177 -166 -518 -215 -590
-10 -14 -25 -41 -34 -62 -26 -56 -109 -176 -168 -244 -98 -114 -199 -172 -296
-173 -97 -1 -154 41 -189 141 -15 44 -18 83 -18 233 0 99 4 207 8 240 13 96
18 129 22 145 2 8 7 38 11 65 10 76 79 341 118 452 128 367 278 626 436 754
85 69 141 90 228 85 49 -3 70 -9 98 -31z"/>
<path d="M14440 8835 c-178 -39 -318 -156 -396 -331 -24 -53 -144 -385 -144
-397 0 -3 18 -7 40 -9 36 -3 40 -1 51 27 109 293 156 395 214 463 70 81 162
106 212 56 24 -24 25 -30 20 -92 -3 -37 -15 -94 -27 -127 -21 -57 -82 -233
-260 -745 -43 -124 -103 -297 -134 -385 -124 -351 -142 -515 -69 -630 14 -23
40 -51 58 -62 99 -65 301 -69 436 -8 120 54 232 172 292 310 26 60 137 371
137 384 0 4 -18 7 -39 7 l-39 0 -57 -146 c-97 -246 -159 -350 -238 -399 -70
-42 -150 -27 -165 33 -18 65 -10 92 193 671 36 105 88 253 115 330 27 77 80
232 119 344 116 335 131 485 60 605 -23 39 -80 82 -130 97 -51 15 -186 17
-249 4z"/>
<path d="M4603 5385 c-199 -54 -326 -229 -317 -436 6 -154 73 -273 199 -353
73 -47 151 -66 254 -62 175 8 296 87 372 242 33 67 34 73 34 189 -1 113 -3
124 -33 188 -86 187 -306 286 -509 232z m187 -121 c92 -15 183 -105 205 -203
54 -246 -103 -439 -328 -401 -108 17 -178 78 -220 188 -24 65 -18 202 12 263
42 87 112 140 206 158 39 7 54 7 125 -5z"/>
<path d="M5563 5385 c-228 -62 -357 -281 -308 -520 23 -108 89 -203 183 -264
67 -43 125 -61 212 -66 179 -11 330 76 412 239 25 50 31 75 34 143 3 60 0 83
-9 84 -6 1 -112 2 -234 3 l-223 1 0 -56 0 -56 155 0 c86 0 157 -2 159 -4 2 -2
-3 -24 -10 -49 -18 -61 -77 -128 -138 -156 -69 -32 -179 -29 -250 6 -175 89
-211 356 -67 500 113 112 324 103 405 -18 18 -28 22 -29 102 -30 46 -1 84 1
84 6 0 21 -63 113 -100 146 -101 91 -268 128 -407 91z"/>
<path d="M2948 5347 c-9 -23 -56 -152 -103 -287 -48 -135 -107 -299 -130 -365
-24 -66 -46 -128 -50 -137 -6 -16 0 -18 68 -18 l74 0 28 78 c15 42 31 81 36
86 4 5 77 9 161 8 200 -1 188 1 194 -19 3 -10 12 -34 19 -53 7 -19 19 -50 25
-67 l12 -33 75 0 c67 0 74 2 68 18 -16 41 -295 824 -295 828 0 2 -37 4 -82 4
l-83 0 -17 -43z m173 -349 c32 -93 55 -168 51 -169 -37 -3 -253 -1 -256 2 -3
2 25 89 62 193 56 160 67 185 75 165 5 -13 35 -99 68 -191z"/>
<path d="M3566 5383 c-3 -4 -6 -195 -6 -425 l0 -419 223 3 222 3 55 31 c34 19
66 48 84 74 72 105 24 268 -92 316 l-27 11 30 15 c36 19 77 63 92 99 6 14 10
53 9 87 -3 84 -38 136 -121 177 l-60 30 -201 2 c-111 1 -205 -1 -208 -4z m360
-118 c93 -17 120 -151 41 -207 -27 -19 -44 -22 -146 -22 l-116 -1 -1 117 -1
117 51 3 c62 4 131 1 172 -7z m41 -369 c48 -24 68 -61 67 -120 -1 -44 -5 -53
-37 -83 -20 -18 -47 -34 -59 -34 -13 -1 -69 -2 -126 -3 -121 -2 -111 -16 -110
151 l1 113 116 -3 c84 -3 125 -8 148 -21z"/>
<path d="M6480 5387 c0 -3 -94 -272 -129 -367 -11 -30 -51 -143 -89 -250 -39
-107 -73 -203 -77 -212 -6 -16 0 -18 68 -18 l74 0 28 78 c15 42 31 81 36 86 4
5 72 9 151 8 215 0 208 0 208 -19 0 -10 12 -48 27 -85 l26 -68 74 0 c40 0 73
1 73 3 0 1 -12 34 -26 72 -14 39 -36 99 -48 135 -83 234 -210 589 -220 613
-11 26 -13 27 -93 27 -46 0 -83 -1 -83 -3z m161 -389 c38 -110 54 -168 46
-169 -31 -3 -250 0 -253 3 -3 3 77 238 96 283 5 11 14 37 21 58 16 45 6 64 90
-175z"/>
<path d="M7080 4964 l0 -425 185 1 c234 2 321 24 410 101 91 80 135 193 131
336 -6 196 -100 326 -281 389 -40 13 -91 18 -247 20 l-198 3 0 -425z m342 301
c148 -18 239 -132 240 -297 1 -145 -50 -234 -160 -285 -45 -21 -69 -25 -165
-26 l-112 -2 -1 307 c-1 305 -1 307 20 310 28 4 120 1 178 -7z"/>
<path d="M8181 5358 c-8 -29 -268 -755 -286 -800 -6 -16 0 -18 68 -18 l74 0
27 73 c14 39 26 78 26 85 0 13 -3 13 202 14 80 0 151 -3 156 -6 5 -3 13 -17
16 -31 4 -14 16 -50 27 -80 l20 -55 76 0 c68 0 74 2 68 18 -4 9 -29 80 -56
157 -27 77 -53 149 -58 160 -5 11 -49 131 -97 268 l-87 247 -83 0 -83 0 -10
-32z m163 -341 c63 -181 65 -187 43 -188 -45 -2 -239 0 -242 3 -2 2 26 88 62
191 36 103 67 186 69 184 2 -2 33 -87 68 -190z"/>
</g>
</svg>
